<svg width="24" height="24" viewBox="0 0 24 24" fill="none" xmlns="http://www.w3.org/2000/svg">
<path fill-rule="evenodd" clip-rule="evenodd" d="M20.53 11.47C20.6705 11.6107 20.7494 11.8013 20.7494 12C20.7494 12.1988 20.6705 12.3894 20.53 12.53L14.53 18.53C14.4614 18.6037 14.3786 18.6628 14.2866 18.7038C14.1946 18.7448 14.0953 18.7668 13.9946 18.7686C13.8939 18.7704 13.7938 18.7519 13.7005 18.7142C13.6071 18.6764 13.5222 18.6203 13.451 18.5491C13.3798 18.4779 13.3236 18.393 13.2859 18.2996C13.2482 18.2062 13.2297 18.1062 13.2315 18.0055C13.2332 17.9048 13.2553 17.8055 13.2963 17.7135C13.3373 17.6215 13.3964 17.5387 13.47 17.47L18.19 12.75L4.00005 12.75C3.80114 12.75 3.61037 12.671 3.46972 12.5304C3.32907 12.3897 3.25005 12.1989 3.25005 12C3.25005 11.8011 3.32907 11.6104 3.46972 11.4697C3.61037 11.329 3.80114 11.25 4.00005 11.25L18.19 11.25L13.47 6.53003C13.3964 6.46137 13.3373 6.37857 13.2963 6.28657C13.2553 6.19457 13.2332 6.09526 13.2315 5.99455C13.2297 5.89385 13.2482 5.79382 13.2859 5.70043C13.3236 5.60705 13.3798 5.52221 13.451 5.45099C13.5222 5.37977 13.6071 5.32363 13.7005 5.28591C13.7938 5.24819 13.8939 5.22966 13.9946 5.23144C14.0953 5.23322 14.1946 5.25526 14.2866 5.29625C14.3786 5.33724 14.4614 5.39634 14.53 5.47003L20.53 11.47Z" fill="white"/>
</svg>
